<?xml version="1.0" encoding="UTF-8"?>
<svg version="1.1" xmlns="http://www.w3.org/2000/svg" width="373" height="129">
<path d="M0 0 C123.09 0 246.18 0 373 0 C373 42.57 373 85.14 373 129 C249.91 129 126.82 129 0 129 C0 86.43 0 43.86 0 0 Z " fill="#FDFCFC" transform="translate(0,0)"/>
<path d="M0 0 C3.3 0 6.6 0 10 0 C10 19.14 10 38.28 10 58 C7.03 58 4.06 58 1 58 C0.505 55.525 0.505 55.525 0 53 C-0.598125 53.639375 -1.19625 54.27875 -1.8125 54.9375 C-5.78456639 58.68259117 -10.07817405 58.33608128 -15.2734375 58.28125 C-20.2992892 57.76282404 -22.90297768 55.157968 -26.25 51.625 C-30.69879855 44.95180217 -31.03425675 37.4815608 -29.5703125 29.72265625 C-27.90101738 24.35412072 -24.65624676 21.05830753 -20 18 C-14.81984932 16.27328311 -10.05965328 16.32530119 -5.0625 18.4375 C-2 20 -2 20 -1 21 C-0.67 14.07 -0.34 7.14 0 0 Z " fill="#3E3F7C" transform="translate(199,36)"/>
<path d="M0 0 C0.77601563 0.00644531 1.55203125 0.01289062 2.3515625 0.01953125 C4.375 0.1875 4.375 0.1875 6.375 1.1875 C6.375 3.4975 6.375 5.8075 6.375 8.1875 C5.26125 8.31125 4.1475 8.435 3 8.5625 C-0.65603677 8.8340813 -0.65603677 8.8340813 -2.625 11.1875 C-2.955 13.4975 -3.285 15.8075 -3.625 18.1875 C2.975 18.1875 9.575 18.1875 16.375 18.1875 C18.04582601 22.3108599 19.71183449 26.43605152 21.375 30.5625 C21.85195313 31.738125 22.32890625 32.91375 22.8203125 34.125 C23.49707031 35.80722656 23.49707031 35.80722656 24.1875 37.5234375 C24.81591797 39.07877197 24.81591797 39.07877197 25.45703125 40.66552734 C26.375 43.1875 26.375 43.1875 26.375 45.1875 C27.035 45.1875 27.695 45.1875 28.375 45.1875 C28.49738037 44.47182861 28.61976074 43.75615723 28.74584961 43.01879883 C29.38742263 40.13159576 30.30814769 37.61611613 31.44140625 34.88671875 C31.84423828 33.91025391 32.24707031 32.93378906 32.66210938 31.92773438 C33.08298828 30.92033203 33.50386719 29.91292969 33.9375 28.875 C34.36224609 27.84826172 34.78699219 26.82152344 35.22460938 25.76367188 C36.27070928 23.23657659 37.32095916 20.71129106 38.375 18.1875 C41.675 18.1875 44.975 18.1875 48.375 18.1875 C44.83407103 27.687452 40.98026 37.02272883 36.91870117 46.31005859 C36.26091523 47.82006932 35.60862332 49.33248448 34.96166992 50.84716797 C26.99893274 69.48625672 26.99893274 69.48625672 19.70703125 73.74609375 C18.45986328 74.18115234 18.45986328 74.18115234 17.1875 74.625 C16.34832031 74.93308594 15.50914062 75.24117188 14.64453125 75.55859375 C12.375 76.1875 12.375 76.1875 9.375 76.1875 C9.045 73.5475 8.715 70.9075 8.375 68.1875 C9.29732422 67.84138672 9.29732422 67.84138672 10.23828125 67.48828125 C15.36838437 65.43421206 15.36838437 65.43421206 19.4375 61.8125 C21.58473936 55.80022979 19.86156971 51.17023364 17.3125 45.6015625 C16.84638306 44.54888687 16.84638306 44.54888687 16.37084961 43.47494507 C15.38254255 41.24936219 14.37907932 39.03100507 13.375 36.8125 C12.6995061 35.29862945 12.02501593 33.78431061 11.3515625 32.26953125 C9.70428119 28.57023083 8.04337896 24.87733052 6.375 21.1875 C6.045 22.5075 5.715 23.8275 5.375 25.1875 C2.405 25.1875 -0.565 25.1875 -3.625 25.1875 C-3.625 36.0775 -3.625 46.9675 -3.625 58.1875 C-6.595 58.1875 -9.565 58.1875 -12.625 58.1875 C-12.625 47.2975 -12.625 36.4075 -12.625 25.1875 C-15.265 25.1875 -17.905 25.1875 -20.625 25.1875 C-20.625 22.8775 -20.625 20.5675 -20.625 18.1875 C-17.985 18.1875 -15.345 18.1875 -12.625 18.1875 C-12.67140625 17.45144531 -12.7178125 16.71539062 -12.765625 15.95703125 C-13.06172457 7.95176799 -13.06172457 7.95176799 -10.875 4.125 C-7.32773464 1.07041039 -4.69642646 -0.08638912 0 0 Z " fill="#3C3D7B" transform="translate(251.625,35.8125)"/>
<path d="M0 0 C4.9692257 2.88215091 8.53603361 6.18608272 10.6171875 11.6640625 C12.27169044 18.66388261 12.07670159 25.84851687 8.40234375 32.125 C5.61757888 35.80395543 2.55370192 38.33626603 -1.875 39.8125 C-9.26185056 40.4695261 -16.17403042 41.00142467 -22.32421875 36.37890625 C-27.17262497 31.48164959 -29.02260164 25.78389163 -29.125 19 C-29.04837486 13.21131896 -28.48688682 9.42438682 -24.2578125 5.1953125 C-17.15922527 -1.17208978 -9.34746216 -3.61572163 0 0 Z " fill="#3E3F7C" transform="translate(329.875,54.1875)"/>
<path d="M0 0 C4.25776658 2.37452367 7.14519249 4.86593439 9.5625 9.125 C10.25 11.8125 10.25 11.8125 10.25 19.8125 C1.34 19.8125 -7.57 19.8125 -16.75 19.8125 C-16.01270977 29.21722799 -16.01270977 29.21722799 -12.625 31.4375 C-5.0954065 32.41962089 0.222103 31.54557106 7.25 28.8125 C7.91 31.1225 8.57 33.4325 9.25 35.8125 C1.93609665 40.58892668 -5.16520109 40.8820815 -13.75 39.8125 C-18.61997029 38.16240512 -21.55166728 35.55889863 -24.1875 31.1875 C-27.05877329 24.9855497 -27.50682367 19.58951193 -26.75 12.8125 C-24.58969286 7.11375876 -20.61875322 3.30530122 -15.75 -0.1875 C-10.35248784 -1.98667072 -5.39726739 -1.70913467 0 0 Z " fill="#503FB7" transform="translate(109.75,54.1875)"/>
<path d="M0 0 C3.94129409 2.24112801 5.37086457 4.29510027 6.75170898 8.55175781 C7.3350905 11.57815155 7.29867255 14.46515909 7.28515625 17.546875 C7.28193359 18.84238281 7.27871094 20.13789062 7.27539062 21.47265625 C7.26703598 22.83593817 7.25857104 24.19921942 7.25 25.5625 C7.24498168 26.94140465 7.24041935 28.32031104 7.23632812 29.69921875 C7.22454093 33.07035659 7.20808635 36.44140628 7.1875 39.8125 C3.8875 39.8125 0.5875 39.8125 -2.8125 39.8125 C-2.82708252 38.94971436 -2.84166504 38.08692871 -2.85668945 37.19799805 C-2.91777754 33.99400353 -2.99193549 30.79065375 -3.07495117 27.5871582 C-3.10818549 26.20120623 -3.13622226 24.81511939 -3.15893555 23.42895508 C-3.19250617 21.43543157 -3.24638 19.44228259 -3.30078125 17.44921875 C-3.32696533 16.24998779 -3.35314941 15.05075684 -3.38012695 13.81518555 C-3.58207548 10.85359611 -3.58207548 10.85359611 -5.09838867 8.92504883 C-7.52915157 7.34735526 -9.94012702 7.39840673 -12.77734375 7.31640625 C-15.77635233 8.04745057 -16.89034866 9.42227399 -18.8125 11.8125 C-19.45245961 14.8974946 -19.45245961 14.8974946 -19.421875 18.328125 C-19.45410156 19.57851562 -19.48632812 20.82890625 -19.51953125 22.1171875 C-19.54080078 24.07011719 -19.54080078 24.07011719 -19.5625 26.0625 C-19.59214844 27.37992188 -19.62179688 28.69734375 -19.65234375 30.0546875 C-19.72305388 33.30735343 -19.77574786 36.55930193 -19.8125 39.8125 C-23.1125 39.8125 -26.4125 39.8125 -29.8125 39.8125 C-29.8125 26.6125 -29.8125 13.4125 -29.8125 -0.1875 C-26.8425 -0.1875 -23.8725 -0.1875 -20.8125 -0.1875 C-20.4825 1.1325 -20.1525 2.4525 -19.8125 3.8125 C-19.3278125 3.4515625 -18.843125 3.090625 -18.34375 2.71875 C-11.8347259 -1.78749746 -7.7321467 -2.40837356 0 0 Z " fill="#3F407C" transform="translate(155.8125,54.1875)"/>
<path d="M0 0 C15.18 0 30.36 0 46 0 C46 2.64 46 5.28 46 8 C40.06 8 34.12 8 28 8 C28 23.84 28 39.68 28 56 C24.7 56 21.4 56 18 56 C18 40.16 18 24.32 18 8 C12.06 8 6.12 8 0 8 C0 5.36 0 2.72 0 0 Z " fill="#922BD8" transform="translate(6,38)"/>
<path d="M0 0 C1 1 1 1 1.09765625 3.06640625 C1.08605469 3.89011719 1.07445313 4.71382812 1.0625 5.5625 C1.05347656 6.38878906 1.04445313 7.21507812 1.03515625 8.06640625 C1.02355469 8.70449219 1.01195313 9.34257813 1 10 C0.33613281 9.94199219 -0.32773438 9.88398437 -1.01171875 9.82421875 C-1.89472656 9.77910156 -2.77773437 9.73398437 -3.6875 9.6875 C-4.55761719 9.62949219 -5.42773438 9.57148437 -6.32421875 9.51171875 C-9.1458162 9.86217925 -9.1458162 9.86217925 -11.78125 11.6875 C-15.27095072 16.89747572 -14.78280104 22.17801562 -14.8125 28.3125 C-14.83763672 29.53001953 -14.86277344 30.74753906 -14.88867188 32.00195312 C-14.94748901 35.00162687 -14.98381039 37.99984298 -15 41 C-18.3 41 -21.6 41 -25 41 C-25 27.8 -25 14.6 -25 1 C-22.03 1 -19.06 1 -16 1 C-16 2.98 -16 4.96 -16 7 C-15.34 7 -14.68 7 -14 7 C-13.6596875 6.1028125 -13.6596875 6.1028125 -13.3125 5.1875 C-10.15158743 -0.08068762 -5.76385927 -0.44337379 0 0 Z " fill="#5241B7" transform="translate(81,53)"/>
<path d="M0 0 C2.8100346 1.79363911 4.50940468 3.01880935 6 6 C7.02628307 18.18080231 7.02628307 18.18080231 4.5625 22.75 C1.41831344 25.51074917 -0.69570004 25.98515033 -4.8125 26.16796875 C-7.9668371 25.92576072 -9.66373911 25.12387354 -12 23 C-14.70136521 17.52090589 -14.69545324 11.9858654 -14 6 C-10.55138319 0.13735141 -6.62053428 -0.95122619 0 0 Z " fill="#F9F9FA" transform="translate(325,61)"/>
<path d="M0 0 C3.01383833 2.15274167 3.77718849 2.70372551 5 6 C5.86645331 12.71291015 6.08873592 18.36663052 2 24 C-1.21553446 26.32849047 -4.11021377 26.54457007 -8 26 C-11.42765324 23.93227415 -13.70709412 21.87871765 -15 18 C-15.90852675 7.54449547 -15.90852675 7.54449547 -13.125 2.8125 C-9.0854414 -0.63300586 -5.15210618 -0.87052829 0 0 Z " fill="#F9F9FA" transform="translate(194,61)"/>
<path d="M0 0 C3.3 0 6.6 0 10 0 C10 13.2 10 26.4 10 40 C6.7 40 3.4 40 0 40 C0 26.8 0 13.6 0 0 Z " fill="#2298F8" transform="translate(218,54)"/>
<path d="M0 0 C-1.50562779 6.00115474 -3.01053946 11.5409851 -6 17 C-6.68528045 18.65910004 -7.35891863 20.32332564 -8 22 C-8.66 22 -9.32 22 -10 22 C-10.495 19.03 -10.495 19.03 -11 16 C-11.6290625 16.39832031 -12.258125 16.79664062 -12.90625 17.20703125 C-22.69040401 23.26318682 -31.19233597 26.2013253 -42.8125 26.1875 C-43.51737549 26.18669434 -44.22225098 26.18588867 -44.94848633 26.18505859 C-52.12118858 26.10087776 -58.42202435 24.97069868 -65 22 C-65.268125 22.598125 -65.53625 23.19625 -65.8125 23.8125 C-66.98493467 25.97224808 -68.19369282 27.35790256 -70 29 C-70.99 28.67 -71.98 28.34 -73 28 C-71.29919134 23.97990681 -69.10902627 21.03836659 -66 18 C-62.33684516 17.9203662 -60.13675807 18.93255766 -56.86328125 20.546875 C-52.59152963 22.38894149 -48.65804288 22.40945238 -44.0625 22.3125 C-42.92264648 22.31733398 -42.92264648 22.31733398 -41.75976562 22.32226562 C-34.48217751 22.25390229 -28.09819342 20.84431738 -21.5625 17.5 C-20.71816406 17.0771875 -19.87382812 16.654375 -19.00390625 16.21875 C-16.85640434 15.15597984 -16.85640434 15.15597984 -16 13 C-18.31 12.34 -20.62 11.68 -23 11 C-19.2050411 7.78341719 -14.85015351 5.88864085 -10.375 3.8125 C-9.59898437 3.44447266 -8.82296875 3.07644531 -8.0234375 2.69726562 C-2.2585952 0 -2.2585952 0 0 0 Z " fill="#825AD2" transform="translate(371,11)"/>
<path d="M0 0 C-1.50562779 6.00115474 -3.01053946 11.5409851 -6 17 C-6.68528045 18.65910004 -7.35891863 20.32332564 -8 22 C-8.66 22 -9.32 22 -10 22 C-10.33 19.69 -10.66 17.38 -11 15 C-11.99 15 -12.98 15 -14 15 C-14.33 12.03 -14.66 9.06 -15 6 C-12.87717331 4.99539469 -10.75166979 3.99644398 -8.625 3 C-7.44164062 2.443125 -6.25828125 1.88625 -5.0390625 1.3125 C-2 0 -2 0 0 0 Z " fill="#6E45C0" transform="translate(371,11)"/>
<path d="M0 0 C2.5625 1.75 2.5625 1.75 4 4 C4 5.32 4 6.64 4 8 C-1.94 8 -7.88 8 -14 8 C-13 3 -13 3 -11.5 1.1875 C-7.70135165 -0.61685797 -4.12604669 -0.68893624 0 0 Z " fill="#F8F7FA" transform="translate(107,61)"/>
<path d="M0 0 C3.63 0 7.26 0 11 0 C11 3.3 11 6.6 11 10 C7.37 10 3.74 10 0 10 C0 6.7 0 3.4 0 0 Z " fill="#1C95F8" transform="translate(217,36)"/>
<path d="M0 0 C0.33 2.64 0.66 5.28 1 8 C1.99 8.33 2.98 8.66 4 9 C2.44038638 9.96302356 0.87716775 10.92021004 -0.6875 11.875 C-1.99267578 12.67550781 -1.99267578 12.67550781 -3.32421875 13.4921875 C-7.3541241 15.76305387 -10.64220249 17.28331517 -15.3125 17.125 C-16.529375 17.08375 -17.74625 17.0425 -19 17 C-15.16747579 14.44498386 -11.06607212 12.54524199 -6.91796875 10.56640625 C-3.32025543 8.98990915 -3.32025543 8.98990915 -1 6 C-3.31 5.34 -5.62 4.68 -8 4 C-2.7826087 0 -2.7826087 0 0 0 Z " fill="#7E5AC7" transform="translate(356,18)"/>
<path d="M0 0 C3.3125 0.125 3.3125 0.125 6 1 C6 1.33 6 1.66 6 2 C5.030625 2.2475 4.06125 2.495 3.0625 2.75 C2.051875 3.1625 1.04125 3.575 0 4 C-0.75243555 5.92638012 -0.75243555 5.92638012 -1 8 C-2.5625 9.75 -2.5625 9.75 -4 11 C-4.99 10.67 -5.98 10.34 -7 10 C-5.29919134 5.97990681 -3.10902627 3.03836659 0 0 Z " fill="#8865D6" transform="translate(305,29)"/>
<path d="M0 0 C0 0.66 0 1.32 0 2 C-2.75078884 2.91692961 -4.35948913 3.10886083 -7.1875 3.0625 C-9.0746875 3.0315625 -9.0746875 3.0315625 -11 3 C-6.86621405 0.2441427 -4.94796454 -0.10756445 0 0 Z " fill="#7148C4" transform="translate(348,32)"/>
<path d="M0 0 C0 0.99 0 1.98 0 3 C-2.97 2.505 -2.97 2.505 -6 2 C-6 2.66 -6 3.32 -6 4 C-6.99 3.67 -7.98 3.34 -9 3 C-6.38997624 -0.48003168 -4.1689578 -0.27793052 0 0 Z " fill="#7A4FD0" transform="translate(312,31)"/>
</svg>
